<svg xmlns="http://www.w3.org/2000/svg" viewBox="0 0 400 400"><defs><style>.cls-1{fill:#4a7f2f;}.cls-2{fill:#bffe9e;}.cls-3{fill:#94fd5e;}.cls-4{fill:#253f18;}</style></defs><title>Confirm_Btn</title><g id="Layer_2" data-name="Layer 2"><g id="Layer_1-2" data-name="Layer 1"><path class="cls-1" d="M203,67.82c72.88,0,132.18,59.3,132.18,132.18S275.88,332.18,203,332.18,70.82,272.88,70.82,200,130.12,67.82,203,67.82M203,62C126.91,62,65,123.91,65,200s61.91,138,138,138,138-61.91,138-138S279.09,62,203,62Z"/><path class="cls-2" d="M177.33,298.5A10,10,0,0,1,169,294l-51-76.77a10,10,0,1,1,16.65-11.07l42.7,64.24,93-140A10,10,0,1,1,287,141.54L185.66,294A10,10,0,0,1,177.33,298.5Z"/><path class="cls-3" d="M394.27,148.25H359.06a8.42,8.42,0,0,0-8.12,10.68,153.72,153.72,0,0,1,5.53,44.12c-1.11,56.94-35.53,107.65-84,133.11L295.73,400H378.5A21.51,21.51,0,0,0,400,378.5V154A5.74,5.74,0,0,0,394.27,148.25ZM390,378.5A11.51,11.51,0,0,1,378.5,390H302.73l-18-49.27c48.83-29.07,80.61-82.12,81.69-137.48a163.91,163.91,0,0,0-5.36-45H390Z"/><path class="cls-1" d="M372.66,262a3.51,3.51,0,0,0-3.91,2.15,180.61,180.61,0,0,1-64.16,81.08,3.49,3.49,0,0,0-1.27,4.06L312,373.2a3.5,3.5,0,0,0,3.29,2.3H372a3.5,3.5,0,0,0,3.5-3.5V265.4A3.5,3.5,0,0,0,372.66,262ZM368.5,368.5H317.78l-7-19.15a188,188,0,0,0,57.7-67.61Z"/><path class="cls-4" d="M325.83,357l-1.32-3.62A201.59,201.59,0,0,0,357,320.91V357Z"/><path class="cls-3" d="M204.39,353.49H203A153.28,153.28,0,0,1,79.94,291.76a12.59,12.59,0,0,0-10.11-5H5.73A5.74,5.74,0,0,0,0,292.48v86A21.51,21.51,0,0,0,21.5,400H250l-18-49.4A145.78,145.78,0,0,1,204.39,353.49ZM21.5,390A11.51,11.51,0,0,1,10,378.5V296.75H69.83a2.61,2.61,0,0,1,2.1,1A162.21,162.21,0,0,0,203,363.5h1.48a155.69,155.69,0,0,0,21-1.61L235.68,390Z"/><path class="cls-1" d="M146.44,368.68A178.53,178.53,0,0,1,65.1,312.53a3.51,3.51,0,0,0-2.71-1.28H28a3.5,3.5,0,0,0-3.5,3.5V372a3.5,3.5,0,0,0,3.5,3.5H145.32a3.5,3.5,0,0,0,1.12-6.82ZM31.5,368.5V318.25H60.74a185.28,185.28,0,0,0,66.13,50.25Z"/><path class="cls-4" d="M43,357V329.75H55.45A196.11,196.11,0,0,0,85,357Z"/><path class="cls-3" d="M5.73,251.75H46.94a8.42,8.42,0,0,0,8.12-10.68,153.79,153.79,0,0,1-5.53-44.13c1.07-55,33.18-104.11,79-130.36L104.27,0H21.5A21.51,21.51,0,0,0,0,21.5V246A5.74,5.74,0,0,0,5.73,251.75ZM10,21.5A11.51,11.51,0,0,1,21.5,10H97.27l19,52.3C69.79,92.13,40.58,142.91,39.53,196.75a164,164,0,0,0,5.36,45H10Z"/><path class="cls-1" d="M27.52,156.2a2.59,2.59,0,0,0,.48,0,3.5,3.5,0,0,0,3.37-2.56A182.22,182.22,0,0,1,96.79,58.25a3.49,3.49,0,0,0,1.17-4L88,26.8a3.5,3.5,0,0,0-3.29-2.3H28A3.5,3.5,0,0,0,24.5,28V152.74A3.5,3.5,0,0,0,27.52,156.2Zm4-124.7H82.22l8.29,22.75a190.24,190.24,0,0,0-59,77.57Z"/><path class="cls-4" d="M43,43H74.17l2.73,7.49A202.49,202.49,0,0,0,43,87.35Z"/><path class="cls-3" d="M378.5,0H150l18.43,50.62a146.57,146.57,0,0,1,33.16-4.11H203a153.28,153.28,0,0,1,123.06,61.74,12.59,12.59,0,0,0,10.11,5h58.1a5.74,5.74,0,0,0,5.73-5.73v-86A21.51,21.51,0,0,0,378.5,0ZM390,103.25H336.17a2.61,2.61,0,0,1-2.1-1A162.21,162.21,0,0,0,203,36.5h-1.46A155.12,155.12,0,0,0,174.9,39L164.32,10H378.5A11.51,11.51,0,0,1,390,21.5Z"/><path class="cls-1" d="M372,24.5H260.68a3.5,3.5,0,0,0-1.12,6.82A178.53,178.53,0,0,1,340.9,87.47a3.51,3.51,0,0,0,2.71,1.28H372a3.5,3.5,0,0,0,3.5-3.5V28A3.5,3.5,0,0,0,372,24.5Zm-3.5,57.25H345.26A185.28,185.28,0,0,0,279.13,31.5H368.5Z"/><path class="cls-4" d="M350.55,70.25A196.63,196.63,0,0,0,321,43h36V70.25Z"/></g></g></svg>