<svg xmlns="http://www.w3.org/2000/svg" viewBox="0 0 438 438"><defs><style>.cls-1{fill:#ff1d25;}.cls-2{fill:#600b0e;}.cls-3{fill:#8f1015;}.cls-4{fill:#800f13;}</style></defs><title>Deny_Btn</title><g id="Layer_2" data-name="Layer 2"><g id="Layer_1-2" data-name="Layer 1"><path class="cls-1" d="M92.5,17h0m161.22,3A20,20,0,0,0,273.5,37h81.91A70.31,70.31,0,0,0,402.5,84.09V164.5A20,20,0,0,0,418,184v70a20,20,0,0,0-15.5,19.49v76.41A70.31,70.31,0,0,0,355.41,397H273.5a20,20,0,0,0-20,20v1h-69v-1a20,20,0,0,0-20-20H89.59A70.31,70.31,0,0,0,42.5,349.91V273.5a20,20,0,0,0-20-20H20v-69h2.5a20,20,0,0,0,20-20V84.09A70.31,70.31,0,0,0,89.59,37H164.5a20,20,0,0,0,19.78-17h69.44M273.5,0h-109V17h-92a50,50,0,0,1-50,50v97.5H0v109H22.5V367a50,50,0,0,1,50,50h92v21h109V417h99a50,50,0,0,1,50-50V273.5H438v-109H422.5V67a50,50,0,0,1-50-50h-99V0Z"/><path class="cls-2" d="M252.36,55l14.07,14.07A10,10,0,0,0,273.5,72h59.58a105.14,105.14,0,0,0,34.42,34.42V164.5a10,10,0,0,0,2.93,7.07L383,184.14v69.72l-12.57,12.57a10,10,0,0,0-2.93,7.07v54.08A105,105,0,0,0,333.08,362H273.5a10,10,0,0,0-7.07,2.93L248.36,383H189.64l-18.07-18.07A10,10,0,0,0,164.5,362H111.92A105,105,0,0,0,77.5,327.58V273.5a10,10,0,0,0-2.93-7.07L55,246.86V191.14l19.57-19.57a10,10,0,0,0,2.93-7.07V106.42A105.14,105.14,0,0,0,111.92,72H164.5a10,10,0,0,0,7.07-2.93L185.64,55h66.72m4.14-10h-75l-17,17H106.15A95.76,95.76,0,0,1,67.5,100.65V164.5L45,187v64l22.5,22.5v59.85A95.76,95.76,0,0,1,106.15,372H164.5l21,21h67l21-21h65.35a95.76,95.76,0,0,1,38.65-38.65V273.5L393,258V180l-15.5-15.5V100.65A95.76,95.76,0,0,1,338.85,62H273.5l-17-17Z"/><path class="cls-3" d="M145.44,117.91l62.95,63a15,15,0,0,0,21.22,0l62.95-63,27.53,27.53-62.95,62.95a15,15,0,0,0,0,21.22l62.95,62.95-27.53,27.53-62.95-62.95a15,15,0,0,0-21.22,0l-62.95,62.95-27.53-27.53,63-62.95a15,15,0,0,0,0-21.22l-63-62.95,27.53-27.53M292.56,96.69,219,170.26,145.44,96.69,96.69,145.44,170.26,219,96.69,292.56l48.75,48.75L219,267.74l73.56,73.57,48.75-48.75L267.74,219l73.57-73.56L292.56,96.69Z"/><polygon class="cls-1" points="129.22 292.56 202.78 219 129.22 145.44 145.44 129.22 219 202.78 292.56 129.22 308.78 145.44 235.22 219 308.78 292.56 292.56 308.78 219 235.22 145.44 308.78 129.22 292.56"/><path class="cls-4" d="M101.25,199.53,120.71,219l-19.46,19.47H95.5V199.53h5.75m6.21-15h-27v68.94h27L141.93,219l-34.47-34.47Z"/><polygon class="cls-1" points="103.5 213.1 109.4 219 103.5 224.9 103.5 213.1"/><path class="cls-4" d="M238.47,95.5v5.75L219,120.71l-19.47-19.46V95.5h38.94m15-15H184.53v27L219,141.93l34.47-34.47v-27Z"/><polygon class="cls-1" points="213.1 103.5 224.9 103.5 219 109.4 213.1 103.5"/><path class="cls-4" d="M219,317.29l19.47,19.46v5.75H199.53v-5.75L219,317.29m0-21.22-34.47,34.47v27h68.94v-27L219,296.07Z"/><polygon class="cls-1" points="213.1 334.5 219 328.6 224.9 334.5 213.1 334.5"/><path class="cls-4" d="M342.5,199.53v38.94h-5.75L317.29,219l19.46-19.47h5.75m15-15h0Zm0,0h-27L296.07,219l34.47,34.47h27V184.53Z"/><polygon class="cls-1" points="328.6 219 334.5 213.1 334.5 224.9 328.6 219"/></g></g></svg>