<svg xmlns="http://www.w3.org/2000/svg" viewBox="0 0 818.5 894.07"><defs><style>.cls-1{fill:#fff;}</style></defs><title>PixelMask</title><g id="Layer_2" data-name="Layer 2"><g id="Layer_1-2" data-name="Layer 1"><polygon class="cls-1" points="808.5 1.79 808.5 23.89 798.5 23.89 798.5 67.93 788.5 67.93 788.5 84.16 778.5 84.16 778.5 85.6 768.5 85.6 768.5 41.41 758.5 41.41 758.5 8.24 748.5 8.24 748.5 90.43 738.5 90.43 738.5 69.4 728.5 69.4 728.5 93.07 718.5 93.07 718.5 65.93 708.5 65.93 708.5 30.15 698.5 30.15 698.5 78.72 688.5 78.72 688.5 90.91 678.5 90.91 678.5 30.89 668.5 30.89 668.5 0 658.5 0 658.5 83.47 648.5 83.47 648.5 81.91 638.5 81.91 638.5 68.62 628.5 68.62 628.5 62.91 618.5 62.91 618.5 60.35 608.5 60.35 608.5 10.52 598.5 10.52 598.5 82.7 588.5 82.7 588.5 10.47 578.5 10.47 578.5 55.45 568.5 55.45 568.5 59.45 558.5 59.45 558.5 35.21 548.5 35.21 548.5 45.98 538.5 45.98 538.5 32.73 528.5 32.73 528.5 32.23 518.5 32.23 518.5 44.95 508.5 44.95 508.5 25.34 498.5 25.34 498.5 43.05 488.5 43.05 488.5 24.43 478.5 24.43 478.5 35.92 468.5 35.92 468.5 63.83 458.5 63.83 458.5 44.91 448.5 44.91 448.5 42.49 438.5 42.49 438.5 18.29 429 18.29 429 0.29 419 0.29 419 9.29 409.5 9.29 409.5 2.79 399.5 2.79 399.5 24.89 389.5 24.89 389.5 68.93 379.5 68.93 379.5 85.16 369.5 85.16 369.5 86.6 359.5 86.6 359.5 42.41 349.5 42.41 349.5 9.24 339.5 9.24 339.5 91.43 329.5 91.43 329.5 70.4 319.5 70.4 319.5 94.07 309.5 94.07 309.5 66.93 299.5 66.93 299.5 31.15 289.5 31.15 289.5 79.72 279.5 79.72 279.5 91.91 269.5 91.91 269.5 31.89 259.5 31.89 259.5 1 249.5 1 249.5 84.47 239.5 84.47 239.5 82.91 229.5 82.91 229.5 69.62 219.5 69.62 219.5 63.91 209.5 63.91 209.5 61.35 199.5 61.35 199.5 11.52 189.5 11.52 189.5 83.7 179.5 83.7 179.5 11.47 169.5 11.47 169.5 56.45 159.5 56.45 159.5 60.45 149.5 60.45 149.5 36.21 139.5 36.21 139.5 46.98 129.5 46.98 129.5 33.73 119.5 33.73 119.5 33.23 109.5 33.23 109.5 45.95 99.5 45.95 99.5 26.34 89.5 26.34 89.5 44.05 79.5 44.05 79.5 25.43 69.5 25.43 69.5 36.92 59.5 36.92 59.5 64.83 49.5 64.83 49.5 45.91 39.5 45.91 39.5 43.49 29.5 43.49 29.5 19.29 20 19.29 20 1.29 10 1.29 10 10.29 0 10.29 0 810.29 10 810.29 10 801.29 19.5 801.29 19.5 819.29 29.5 819.29 29.5 843.5 39.5 843.5 39.5 845.91 49.5 845.91 49.5 864.83 59.5 864.83 59.5 836.92 69.5 836.92 69.5 825.43 79.5 825.43 79.5 844.05 89.5 844.05 89.5 826.35 99.5 826.35 99.5 845.95 109.5 845.95 109.5 833.23 119.5 833.23 119.5 833.73 129.5 833.73 129.5 846.98 139.5 846.98 139.5 836.21 149.5 836.21 149.5 860.45 159.5 860.45 159.5 856.45 169.5 856.45 169.5 811.47 179.5 811.47 179.5 883.71 189.5 883.71 189.5 811.52 199.5 811.52 199.5 861.35 209.5 861.35 209.5 863.9 219.5 863.9 219.5 869.62 229.5 869.62 229.5 882.91 239.5 882.91 239.5 884.47 249.5 884.47 249.5 801 259.5 801 259.5 831.88 269.5 831.88 269.5 891.91 279.5 891.91 279.5 879.72 289.5 879.72 289.5 831.15 299.5 831.15 299.5 866.93 309.5 866.93 309.5 894.07 319.5 894.07 319.5 870.4 329.5 870.4 329.5 891.43 339.5 891.43 339.5 809.24 349.5 809.24 349.5 842.41 359.5 842.41 359.5 886.6 369.5 886.6 369.5 885.16 379.5 885.16 379.5 868.93 389.5 868.93 389.5 824.89 399.5 824.89 399.5 802.79 409 802.79 409 809.29 419 809.29 419 800.29 428.5 800.29 428.5 818.29 438.5 818.29 438.5 842.5 448.5 842.5 448.5 844.91 458.5 844.91 458.5 863.83 468.5 863.83 468.5 835.92 478.5 835.92 478.5 824.43 488.5 824.43 488.5 843.05 498.5 843.05 498.5 825.35 508.5 825.35 508.5 844.95 518.5 844.95 518.5 832.23 528.5 832.23 528.5 832.73 538.5 832.73 538.5 845.98 548.5 845.98 548.5 835.21 558.5 835.21 558.5 859.45 568.5 859.45 568.5 855.45 578.5 855.45 578.5 810.47 588.5 810.47 588.5 882.71 598.5 882.71 598.5 810.52 608.5 810.52 608.5 860.35 618.5 860.35 618.5 862.9 628.5 862.9 628.5 868.62 638.5 868.62 638.5 881.91 648.5 881.91 648.5 883.47 658.5 883.47 658.5 800 668.5 800 668.5 830.88 678.5 830.88 678.5 890.91 688.5 890.91 688.5 878.72 698.5 878.72 698.5 830.15 708.5 830.15 708.5 865.93 718.5 865.93 718.5 893.07 728.5 893.07 728.5 869.4 738.5 869.4 738.5 890.43 748.5 890.43 748.5 808.24 758.5 808.24 758.5 841.41 768.5 841.41 768.5 885.6 778.5 885.6 778.5 884.16 788.5 884.16 788.5 867.93 798.5 867.93 798.5 823.89 808.5 823.89 808.5 801.79 818.5 801.79 818.5 1.79 808.5 1.79"/></g></g></svg>